<svg width="245" height="131" viewBox="0 0 245 131" fill="none" xmlns="http://www.w3.org/2000/svg">
<g filter="url(#filter0_d_2_588)">
<rect x="20.9956" y="10" width="204" height="91" rx="12" fill="white"/>
</g>
<path d="M132.621 43.1023V45.869C132.628 46.0545 132.708 46.2297 132.844 46.3569C132.979 46.4841 133.159 46.5532 133.344 46.5492H139.771L132.366 57.1452C131.898 57.8263 131.898 58.5919 131.898 59.0175V61.8258C131.898 62.2513 132.366 62.6768 132.792 62.4641C136.962 60.2086 142.026 60.4214 145.813 62.4215C146.281 62.6765 146.706 62.2087 146.706 61.7832V58.847C146.664 58.464 146.536 58.0384 146.068 57.7831C143.941 56.5919 141.43 56.2516 139.047 56.2942L145.43 47.1876C146.026 46.3361 146.366 45.8258 146.366 45.4428V43.1023C146.359 42.9166 146.279 42.7413 146.143 42.614C146.008 42.4866 145.828 42.4175 145.642 42.4214H133.302C133.211 42.4166 133.12 42.4309 133.036 42.4634C132.951 42.4959 132.874 42.5459 132.81 42.6101C132.745 42.6743 132.695 42.7513 132.663 42.8361C132.63 42.9209 132.616 43.0116 132.621 43.1023Z" fill="#C4C4C4"/>
<path d="M83.8965 63.0176H87.6413C87.8251 63.0241 88.0049 62.9627 88.1462 62.8449C88.2876 62.7271 88.3805 62.5614 88.4072 62.3794V52.1663C88.4072 52.0996 88.4072 52.0322 88.4071 51.9642C88.4046 49.7324 88.4015 46.847 91.0031 46.847C93.3785 46.847 93.3392 49.4343 93.3078 51.5029C93.3043 51.7318 93.3009 51.9543 93.3009 52.1663V62.3794C93.3009 62.7199 93.5989 63.0177 93.9818 63.0603H97.7266C97.9123 63.0642 98.0922 62.995 98.2274 62.8677C98.3627 62.7403 98.4426 62.565 98.4499 62.3794V52.1663C98.4499 52.0688 98.4496 51.9673 98.4493 51.8627C98.4457 50.7799 98.4411 49.3566 98.7903 48.4642C98.9718 48.0104 99.282 47.6195 99.6827 47.3398C100.083 47.06 100.557 46.9035 101.046 46.8896C102.152 46.8896 102.961 47.2726 103.259 48.5492C103.392 49.1503 103.368 50.5376 103.352 51.4977C103.348 51.761 103.344 51.9923 103.344 52.1663V62.3794C103.344 62.7199 103.642 63.0177 104.025 63.0603H107.727C107.913 63.0642 108.093 62.995 108.228 62.8677C108.363 62.7403 108.443 62.565 108.451 62.3794V50.2089C108.451 49.8988 108.456 49.5831 108.462 49.2649C108.494 47.4436 108.528 45.5428 107.514 44.1663C106.45 42.6768 104.748 42.0385 103.174 42.0385C100.961 42.0385 98.8753 43.1875 97.9819 45.613C96.9605 43.1875 95.4712 42.0385 93.1307 42.0385C90.8328 42.0385 89.0878 43.1875 88.1944 45.613H88.1093V43.1023C88.0956 42.9303 88.0182 42.7695 87.8923 42.6515C87.7664 42.5335 87.601 42.4666 87.4284 42.464H83.939C83.7533 42.4601 83.5734 42.5293 83.4382 42.6566C83.3029 42.7839 83.223 42.9593 83.2156 43.1449V62.3793C83.2434 62.5456 83.325 62.6983 83.4481 62.8136C83.5711 62.929 83.7287 63.0006 83.8965 63.0176Z" fill="#C4C4C4"/>
<path fill-rule="evenodd" clip-rule="evenodd" d="M165.6 52.8898C165.6 46.8046 162.579 42.0385 157.004 42.0385C151.557 42.0385 148.536 46.7194 148.579 52.7195C148.579 58.6771 151.557 63.4431 157.004 63.4431C162.281 63.4431 165.6 58.7623 165.6 52.8898ZM154.068 52.1238C154.068 49.7834 154.238 45.996 157.004 45.996C158.196 45.996 159.047 46.5065 159.472 47.8683C159.941 49.4004 160.026 51.3577 160.026 52.9749C160.026 55.443 159.856 59.4857 156.962 59.4857C154.066 59.4857 154.068 54.6028 154.068 52.2229L154.068 52.1238Z" fill="#C4C4C4"/>
<path d="M169.047 63.0176H172.792C172.98 63.0158 173.162 62.9463 173.302 62.8211C173.443 62.6959 173.534 62.524 173.558 62.337V51.9533C173.558 50.6341 173.643 49.4848 174.153 48.2936C174.579 47.3573 175.43 46.7617 176.324 46.7617C178.711 46.7617 178.687 49.3532 178.667 51.4246C178.666 51.6056 178.664 51.7826 178.664 51.9536V62.4216C178.707 62.7194 179.005 62.9746 179.345 63.0172H183.09C183.263 63.0249 183.432 62.9682 183.566 62.8583C183.7 62.7483 183.788 62.5927 183.813 62.4216V50.2937C183.813 48.4213 183.813 45.8255 182.835 44.2936C181.771 42.6337 180.111 42.0382 178.452 42.0382C175.856 42.0382 174.409 43.2722 173.345 45.9106H173.26V42.9744C173.222 42.8206 173.135 42.6834 173.012 42.5836C172.889 42.4838 172.737 42.4267 172.579 42.4211H169.09C168.912 42.4225 168.742 42.4878 168.609 42.6051C168.476 42.7224 168.39 42.8837 168.366 43.0594V62.3367C168.366 62.6772 168.664 62.975 169.047 63.0176Z" fill="#C4C4C4"/>
<path fill-rule="evenodd" clip-rule="evenodd" d="M126.145 63.1614C126.306 63.1461 126.457 63.081 126.578 62.9751L126.58 62.975C126.852 62.7484 127.199 62.4521 127.569 62.1355C128.243 61.5604 128.995 60.9185 129.516 60.5068C129.814 60.2941 129.771 59.8685 129.516 59.5281C129.434 59.4102 129.351 59.2954 129.269 59.1816C128.671 58.3507 128.112 57.5733 128.112 56.0387V50.2088C128.112 50.014 128.113 49.8202 128.114 49.6277C128.126 47.3821 128.138 45.3084 126.452 43.7406C125.005 42.3363 122.622 41.8683 120.793 41.8683C117.218 41.8683 113.26 43.1875 112.409 47.6131C112.324 48.0813 112.665 48.294 112.963 48.3791L116.58 48.7621C116.92 48.7621 117.133 48.4216 117.218 48.0812C117.516 46.5491 118.793 45.8258 120.239 45.8258C121.005 45.8258 121.856 46.1235 122.324 46.8044C122.813 47.4816 122.803 48.3919 122.794 49.2112C122.793 49.3186 122.792 49.4244 122.792 49.5279V49.9959C122.439 50.0375 122.068 50.0767 121.686 50.1172C119.716 50.3258 117.439 50.567 115.728 51.3151C113.387 52.3366 111.727 54.3791 111.727 57.443C111.727 61.3154 114.196 63.2729 117.345 63.2729C119.983 63.2729 121.472 62.6339 123.515 60.5494C123.614 60.6923 123.705 60.8253 123.79 60.9513C124.291 61.6882 124.631 62.188 125.685 63.0602C125.824 63.1412 125.985 63.1766 126.145 63.1614ZM122.791 54.0545C122.791 53.9789 122.791 53.9028 122.791 53.826V53.0181C120.068 53.0181 117.217 53.6139 117.217 56.8054C117.217 58.4226 118.068 59.5289 119.514 59.5289C120.578 59.5289 121.515 58.8906 122.11 57.8267C122.795 56.5769 122.793 55.4041 122.791 54.0545Z" fill="#C4C4C4"/>
<path fill-rule="evenodd" clip-rule="evenodd" d="M76.9527 63.1614C77.113 63.1461 77.2644 63.081 77.3857 62.9751L77.3872 62.975C77.6591 62.7484 78.006 62.4521 78.3767 62.1355C79.0502 61.5604 79.8018 60.9185 80.3233 60.5068C80.6211 60.2941 80.5787 59.8685 80.3233 59.5281C80.2413 59.4102 80.1587 59.2954 80.0767 59.1816C79.4787 58.3507 78.9191 57.5733 78.9191 56.0387V50.2088C78.9191 50.014 78.9201 49.8202 78.9212 49.6277C78.9335 47.3821 78.9449 45.3084 77.2595 43.7406C75.8126 42.3363 73.4297 41.8683 71.5998 41.8683C68.0254 41.8683 64.0678 43.1875 63.2167 47.6131C63.1317 48.0813 63.4722 48.294 63.77 48.3791L67.3871 48.7621C67.7276 48.7621 67.9403 48.4216 68.0254 48.0812C68.3233 46.5491 69.5999 45.8258 71.0467 45.8258C71.8121 45.8258 72.6632 46.1235 73.1313 46.8044C73.6203 47.4816 73.6104 48.3919 73.6016 49.2112C73.6004 49.3186 73.5993 49.4244 73.5993 49.5279V49.9959C73.2465 50.0375 72.8756 50.0767 72.4932 50.1172C70.5235 50.3258 68.2458 50.567 66.5354 51.3151C64.1943 52.3366 62.5347 54.3791 62.5347 57.443C62.5347 61.3154 65.0028 63.2729 68.1519 63.2729C70.7901 63.2729 72.2796 62.6339 74.3221 60.5494C74.4216 60.6923 74.512 60.8253 74.5977 60.9513C75.0988 61.6882 75.4385 62.188 76.4924 63.0602C76.6315 63.1412 76.7925 63.1766 76.9527 63.1614ZM73.6412 54.0546C73.6411 53.979 73.641 53.9028 73.641 53.826V53.0181C70.9175 53.0181 68.0664 53.6139 68.0664 56.8054C68.0664 58.4226 68.9174 59.5289 70.3643 59.5289C71.4282 59.5289 72.3645 58.8906 72.9601 57.8267C73.6452 56.5769 73.6433 55.4041 73.6412 54.0546Z" fill="#C4C4C4"/>
<path d="M140.706 67.0602C139.812 65.9113 134.748 66.507 132.493 66.8049C131.812 66.89 131.684 66.2943 132.322 65.8687C136.365 63.0176 142.961 63.8686 143.727 64.8048C144.493 65.741 143.514 72.379 139.726 75.5284C139.131 75.9964 138.577 75.7411 138.833 75.1028L138.877 74.9915C139.749 72.8147 141.584 68.231 140.706 67.0602Z" fill="#C4C4C4"/>
<path d="M137.77 70.4223C130.748 75.6141 120.535 78.3799 111.726 78.3799C99.3858 78.3799 88.3218 73.8266 79.8961 66.2521C79.2578 65.6565 79.811 64.8478 80.6194 65.3159C89.6835 70.5925 100.875 73.7416 112.45 73.7416C120.237 73.7416 128.833 72.1246 136.748 68.7627C137.939 68.2946 138.919 69.5712 137.77 70.4223Z" fill="#C4C4C4"/>
<defs>
<filter id="filter0_d_2_588" x="0.995605" y="0" width="244" height="131" filterUnits="userSpaceOnUse" color-interpolation-filters="sRGB">
<feFlood flood-opacity="0" result="BackgroundImageFix"/>
<feColorMatrix in="SourceAlpha" type="matrix" values="0 0 0 0 0 0 0 0 0 0 0 0 0 0 0 0 0 0 127 0" result="hardAlpha"/>
<feOffset dy="10"/>
<feGaussianBlur stdDeviation="10"/>
<feColorMatrix type="matrix" values="0 0 0 0 0 0 0 0 0 0 0 0 0 0 0 0 0 0 0.1 0"/>
<feBlend mode="normal" in2="BackgroundImageFix" result="effect1_dropShadow_2_588"/>
<feBlend mode="normal" in="SourceGraphic" in2="effect1_dropShadow_2_588" result="shape"/>
</filter>
</defs>
</svg>
