<svg width="21" height="19" viewBox="0 0 21 19" fill="none" xmlns="http://www.w3.org/2000/svg">
<path d="M20.2708 7.15784C20.2009 6.94823 20.0148 6.79547 19.7908 6.76382L13.4977 5.87364L10.6833 0.32269C10.5831 0.125085 10.3764 0 10.15 0C9.92364 0 9.71691 0.125085 9.61672 0.32269L6.80217 5.87364L0.509197 6.76382C0.285224 6.79547 0.0990758 6.94823 0.0291362 7.1578C-0.0408429 7.3674 0.0175193 7.59747 0.179641 7.75127L4.73316 12.0721L3.65838 18.1732C3.62008 18.3905 3.71183 18.6099 3.89496 18.7395C3.99856 18.8127 4.12127 18.85 4.24458 18.85C4.33926 18.85 4.43426 18.828 4.52125 18.7835L10.15 15.9029L15.7785 18.7835C15.9789 18.886 16.2217 18.8689 16.4048 18.7394C16.588 18.6099 16.6797 18.3904 16.6415 18.1732L15.5663 12.0721L20.1204 7.75123C20.2825 7.59747 20.3409 7.3674 20.2708 7.15784Z" fill="#FFCA56"/>
</svg>
